# xmcd CD database file
#
# Track frame offsets:
#	150
#	16527
#	29162
#	42564
#	56972
#	70981
#	82227
#	96560
#	110737
#	128266
#	145461
#	157746
#	172611
#	183578
#	197551
#
# Disc length: 2895 seconds
#
# Revision: 0
# Processed by: cddbd v1.5.2PL0 Copyright (c) Steve Scherf et al.
# Submitted via: CDex 1.51
#
DISCID=d20b4d0f
DTITLE=Lance James - No Charge
DYEAR=2001
DGENRE=Country
TTITLE0=No Charge
TTITLE1=Adios Adios Ek Groet Jou
TTITLE2=On My Mind
TTITLE3=Blue Eyes Crying In The Rain
TTITLE4=Daar Is Niks Soos Ware Liefde
TTITLE5=Friends Forever
TTITLE6=Green Green Grass Of Home
TTITLE7=A Million Tears
TTITLE8=Kom Terug Na My
TTITLE9=Two Cowboys
TTITLE10=Long Black Limousine
TTITLE11=Forever And Ever
TTITLE12=Hy Wil Jou Vrede Gee
TTITLE13=Della And The Dealer
TTITLE14=Love Is A Beautiful Song
EXTD=YEAR: 2001
EXTT0=
EXTT1=
EXTT2=
EXTT3=
EXTT4=
EXTT5=
EXTT6=
EXTT7=
EXTT8=
EXTT9=
EXTT10=
EXTT11=
EXTT12=
EXTT13=
EXTT14=
PLAYORDER=
